<svg width="115" height="86" viewBox="0 0 115 86" fill="none" xmlns="http://www.w3.org/2000/svg">
<path d="M107.878 33.5953C107.001 34.4018 105.914 35.3837 104.547 36.4707C104.722 34.8577 104.792 33.2096 104.792 31.5615C104.792 29.9134 104.722 28.2654 104.547 26.6523C105.879 27.7744 107.001 28.7563 107.878 29.5277C109.07 30.6148 109.07 32.5083 107.878 33.5953Z" fill="#003E6D"/>
<path d="M101.564 31.5602C101.564 34.2252 101.319 36.8551 100.863 39.4149C99.6355 40.3266 98.303 41.3085 96.9004 42.2552C97.8121 38.8539 98.3381 35.2772 98.3381 31.5602C98.3381 27.8433 97.8472 24.2666 96.9004 20.8652C98.3381 21.8471 99.6706 22.7938 100.863 23.7055C101.319 26.2653 101.564 28.8952 101.564 31.5602Z" fill="#003E6D"/>
<path d="M95.0806 31.5615C95.0806 36.2954 94.2039 40.8539 92.5558 45.0267C91.013 45.9735 89.3999 46.8852 87.7168 47.7618C90.3116 42.9228 91.8195 37.4175 91.8195 31.5615C91.8195 25.7056 90.3467 20.1652 87.7168 15.3262C89.3999 16.2028 91.013 17.1496 92.5558 18.0613C94.1689 22.2692 95.0806 26.7926 95.0806 31.5615Z" fill="#003E6D"/>
<path d="M88.5587 31.5614C88.5587 38.6797 86.1391 45.237 82.1066 50.4617C79.8273 51.4436 77.4429 52.3553 74.9883 53.1267C81.3001 48.0422 85.3326 40.2577 85.3326 31.5614C85.3326 22.8652 81.3001 15.0806 74.9883 9.99609C77.4429 10.7675 79.8273 11.6792 82.1066 12.6611C86.1391 17.8858 88.5587 24.4431 88.5587 31.5614Z" fill="#003E6D"/>
<path d="M60.8865 7.29242C59.7994 7.15216 58.7124 7.08203 57.5903 7.08203C56.4682 7.08203 55.3812 7.15216 54.2941 7.29242C49.385 7.60801 44.6511 8.58985 40.1978 9.95741C37.7432 10.7288 35.3587 11.6406 33.0795 12.6224C31.1158 13.464 29.2573 14.3757 27.469 15.3224C25.7858 16.1991 24.1728 17.1458 22.6299 18.0576C21.087 18.9693 19.6494 19.916 18.2818 20.8277C16.8441 21.8096 15.5116 22.7563 14.3194 23.668C12.9518 24.6849 11.7245 25.7018 10.6375 26.5785C9.30502 27.7006 8.18292 28.6824 7.30628 29.4539C6.11405 30.5409 6.11405 32.4344 7.30628 33.5215C8.18292 34.328 9.26995 35.3098 10.6375 36.3968C11.7245 37.3085 12.9518 38.2904 14.3194 39.3073C15.5467 40.219 16.8792 41.2008 18.2818 42.1476C19.6494 43.0593 21.087 44.0061 22.6299 44.9178C24.1728 45.8645 25.7858 46.7762 27.469 47.6529C29.2573 48.5997 31.1158 49.5114 33.0795 50.3529C35.3587 51.3348 37.7432 52.2465 40.1978 53.0179C44.6511 54.4205 49.385 55.4024 54.2941 55.6829C55.3812 55.8232 56.4682 55.8933 57.5903 55.8933C58.7124 55.8933 59.7994 55.8232 60.8865 55.6829C72.8438 54.0699 82.0661 43.8307 82.0661 31.4175C82.0661 19.1446 72.8438 8.90544 60.8865 7.29242Z" fill="#003E6D"/>
<path d="M78.6273 31.5608C78.6273 42.2207 70.7025 51.0222 60.3932 52.4248C59.4815 52.5651 58.5348 52.6002 57.5529 52.6002C56.6061 52.6002 55.6594 52.53 54.7126 52.4248C44.4384 51.0573 36.4785 42.2207 36.4785 31.5608C36.4785 20.9009 44.4033 12.0994 54.7126 10.6968C55.6243 10.5565 56.5711 10.5215 57.5529 10.5215C58.4997 10.5215 59.4465 10.5916 60.3932 10.6968C70.7025 12.0994 78.6273 20.9009 78.6273 31.5608Z" fill="url(#paint0_radial_311_6378)"/>
<path d="M64.3537 31.5606C64.3537 34.997 61.7939 37.8023 58.4977 38.2581C58.2172 38.2932 57.9016 38.3283 57.586 38.3283C57.2704 38.3283 56.9899 38.2932 56.6743 38.2581C53.3781 37.8023 50.8184 34.997 50.8184 31.5606C50.8184 28.1242 53.3781 25.319 56.6743 24.8631C56.9548 24.828 57.2704 24.793 57.586 24.793C57.9016 24.793 58.1821 24.828 58.4977 24.8631C61.7939 25.2839 64.3537 28.1242 64.3537 31.5606Z" fill="#003E6D"/>
<path d="M99.3517 13.6054C85.5008 4.69878 71.0538 0 57.5886 0C44.1234 0 29.7115 4.69878 15.8606 13.6054C9.05787 17.9536 3.9383 22.3017 1.16812 24.8615C0.466808 25.5277 0.431743 26.6498 1.16812 27.3161C1.7993 27.9122 2.8162 27.9122 3.44738 27.3161C6.11236 24.8615 11.0215 20.6536 17.6489 16.4107C30.9738 7.85468 44.7546 3.36629 57.5886 3.36629C70.4226 3.36629 84.2384 7.88975 97.5283 16.4107C104.121 20.6536 109.065 24.8615 111.73 27.3161C112.361 27.9122 113.378 27.9122 114.009 27.3161C114.71 26.6498 114.71 25.5277 114.009 24.8615C111.204 22.2666 106.119 17.9185 99.3517 13.6054Z" fill="#003E6D"/>
<path d="M68.8439 13.7812L60.1827 27.4919L57.5879 31.5595L62.0763 29.8062L77.1895 23.9503C75.5765 19.7424 72.596 16.1657 68.8439 13.7812Z" fill="white"/>
<path d="M15.5069 65.7461H18.1719C18.5576 65.7461 18.768 65.9565 18.768 66.3422V84.2958C18.768 84.6815 18.5576 84.8919 18.1719 84.8919H16.0329C15.6121 84.8919 15.3316 84.7166 15.1562 84.401L9.1951 73.3904V84.3308C9.1951 84.7166 8.98471 84.927 8.59899 84.927H5.93401C5.54828 84.927 5.33789 84.7166 5.33789 84.3308V66.3773C5.33789 65.9916 5.54828 65.7812 5.93401 65.7812H8.59899C9.01977 65.7812 9.3003 65.9565 9.47563 66.2721L14.9108 76.5112V66.3773C14.9108 65.9565 15.1212 65.7461 15.5069 65.7461Z" fill="#003E6D"/>
<path d="M25.7437 78.6155V79.5973C25.7437 80.1233 25.919 80.5791 26.3047 80.8947C26.6904 81.2103 27.2164 81.3856 27.8827 81.3856H31.8801C32.2659 81.3856 32.4762 81.596 32.4762 81.9817V84.261C32.4762 84.6467 32.2659 84.8571 31.8801 84.8571H27.6723C25.919 84.8571 24.4813 84.3662 23.3943 83.3493C22.3072 82.3675 21.7812 80.9999 21.7812 79.3168V75.4596C21.7812 73.7063 22.3072 72.2686 23.3943 71.2166C24.4813 70.1647 25.8839 69.6387 27.6372 69.6387C29.3554 69.6387 30.723 70.1647 31.7749 71.2166C32.8269 72.2686 33.3529 73.6712 33.3529 75.4596V78.0544C33.3529 78.4401 33.1425 78.6505 32.7568 78.6505H25.7437V78.6155ZM27.6372 72.8647C27.0411 72.8647 26.5852 73.0751 26.2696 73.4608C25.919 73.8465 25.7437 74.3375 25.7437 74.9686V75.9154H29.4606V74.9686C29.4606 74.3375 29.2853 73.8465 28.9697 73.4608C28.6541 73.0751 28.1982 72.8647 27.6372 72.8647Z" fill="#003E6D"/>
<path d="M43.2771 73.3572H40.8225V79.8443C40.8225 80.4404 40.9277 80.8261 41.1381 81.0716C41.3485 81.3171 41.664 81.4223 42.1199 81.4223H43.2771C43.6628 81.4223 43.8732 81.6327 43.8732 82.0184V84.2976C43.8732 84.6834 43.6628 84.8938 43.2771 84.8938H41.629C38.3679 84.8938 36.7549 83.2457 36.7549 79.9495V73.3923H35.4574C35.0717 73.3923 34.8613 73.1819 34.8613 72.7961V70.5169C34.8613 70.1312 35.0717 69.9208 35.4574 69.9208H36.7549V66.309C36.7549 65.9233 36.9653 65.7129 37.351 65.7129H40.2614C40.6471 65.7129 40.8575 65.9233 40.8575 66.309V69.9208H43.3121C43.6978 69.9208 43.9082 70.1312 43.9082 70.5169V72.7961C43.8732 73.1819 43.6628 73.3572 43.2771 73.3572Z" fill="#003E6D"/>
<path d="M47.1021 65.7461H50.1528C50.5385 65.7461 50.7489 65.9565 50.7489 66.3422V81.0697H57.3061C57.6919 81.0697 57.9023 81.2801 57.9023 81.6659V84.2958C57.9023 84.6815 57.6919 84.8919 57.3061 84.8919H47.1371C46.7514 84.8919 46.541 84.6815 46.541 84.2958V66.3422C46.541 65.9565 46.7163 65.7461 47.1021 65.7461Z" fill="#EE4905"/>
<path d="M63.4447 78.6155V79.5973C63.4447 80.1233 63.6201 80.5791 64.0058 80.8947C64.3915 81.2103 64.9175 81.3856 65.5837 81.3856H69.5812C69.9669 81.3856 70.1773 81.596 70.1773 81.9817V84.261C70.1773 84.6467 69.9669 84.8571 69.5812 84.8571H65.3383C63.585 84.8571 62.1473 84.3662 61.0603 83.3493C59.9733 82.3675 59.4473 80.9999 59.4473 79.3168V75.4596C59.4473 73.7063 59.9733 72.2686 61.0603 71.2166C62.1473 70.1647 63.5499 69.6387 65.3032 69.6387C67.0214 69.6387 68.389 70.1647 69.4409 71.2166C70.4929 72.2686 71.0189 73.6712 71.0189 75.4596V78.0544C71.0189 78.4401 70.8085 78.6505 70.4228 78.6505H63.4447V78.6155ZM65.3383 72.8647C64.7422 72.8647 64.2863 73.0751 63.9707 73.4608C63.6201 73.8465 63.4447 74.3375 63.4447 74.9686V75.9154H67.1617V74.9686C67.1617 74.3375 66.9864 73.8465 66.6708 73.4608C66.3552 73.0751 65.8993 72.8647 65.3383 72.8647Z" fill="#EE4905"/>
<path d="M83.9579 84.8597H81.5033C81.1175 84.8597 80.9071 84.6844 80.837 84.2987L80.7318 83.7025C80.0305 84.6493 78.9435 85.1402 77.5759 85.1402C76.1733 85.1402 75.0512 84.7896 74.2096 84.0532C73.3681 83.3168 72.9473 82.2649 72.9473 80.8622C72.9473 79.3544 73.3681 78.2674 74.2447 77.6011C75.1213 76.9349 76.3486 76.479 77.9616 76.2686L80.4513 75.9531V75.392C80.4513 74.7608 80.276 74.2699 79.8902 73.8842C79.5045 73.5335 78.9785 73.3582 78.2772 73.3582H74.5953C74.2096 73.3582 73.9992 73.1478 73.9992 72.7621V70.4828C73.9992 70.0971 74.2096 69.8867 74.5953 69.8867H79.0487C80.7318 69.8867 82.0643 70.4127 83.0461 71.4296C84.028 72.4465 84.5189 73.8141 84.5189 75.5323V84.2285C84.554 84.6493 84.3436 84.8597 83.9579 84.8597ZM77.0499 80.6168C77.0499 81.5285 77.5759 81.9843 78.5928 81.9843C79.224 81.9843 79.6799 81.809 79.9954 81.4584C80.311 81.1077 80.4864 80.6168 80.4864 80.0557V78.8284L78.8733 79.0739C78.4526 79.144 78.172 79.1791 77.9266 79.2492C77.7162 79.3194 77.5058 79.4596 77.3305 79.67C77.1201 79.9155 77.0499 80.2311 77.0499 80.6168Z" fill="#EE4905"/>
<path d="M94.2643 73.7421C92.6513 73.7421 91.8097 74.4434 91.8097 75.8811V84.2617C91.8097 84.6475 91.5993 84.8579 91.2136 84.8579H88.3031C87.9174 84.8579 87.707 84.6475 87.707 84.2617V70.516C87.707 70.1303 87.9174 69.9199 88.3031 69.9199H90.7227C91.1084 69.9199 91.3188 70.1303 91.3889 70.516L91.5993 71.7784C92.3707 70.5511 93.3877 69.955 94.65 69.955H95.2812C95.6669 69.955 95.8773 70.1654 95.8773 70.5511V73.181C95.8773 73.5667 95.6669 73.7771 95.2812 73.7771H94.2643V73.7421Z" fill="#EE4905"/>
<path d="M102.015 75.2842V84.261C102.015 84.6467 101.804 84.8571 101.419 84.8571H98.5082C98.1225 84.8571 97.9121 84.6467 97.9121 84.261V70.5153C97.9121 70.1296 98.1225 69.9192 98.5082 69.9192H100.928C101.349 69.9192 101.559 70.1296 101.629 70.5153L101.734 71.2166C102.541 70.1647 103.698 69.6387 105.206 69.6387C106.749 69.6387 107.906 70.1296 108.712 71.0764C109.484 72.0582 109.869 73.3556 109.869 74.9686V84.261C109.869 84.6467 109.659 84.8571 109.273 84.8571H106.363C105.977 84.8571 105.767 84.6467 105.767 84.261V75.2842C105.767 74.653 105.591 74.1621 105.276 73.7764C104.96 73.3907 104.504 73.1803 103.908 73.1803C103.312 73.1803 102.856 73.3907 102.506 73.7764C102.19 74.1621 102.015 74.653 102.015 75.2842Z" fill="#EE4905"/>
<defs>
<radialGradient id="paint0_radial_311_6378" cx="0" cy="0" r="1" gradientUnits="userSpaceOnUse" gradientTransform="translate(74.6243 15.6716) scale(43.6416 43.6416)">
<stop stop-color="#F86F05"/>
<stop offset="1" stop-color="#EE4905"/>
</radialGradient>
</defs>
</svg>
